<?xml version="1.0" encoding="UTF-8"?>
<svg id="_图层_1" xmlns="http://www.w3.org/2000/svg" version="1.1" viewBox="0 0 144 144">
  <!-- Generator: Adobe Illustrator 29.4.0, SVG Export Plug-In . SVG Version: 2.1.0 Build 152)  -->
  <defs>
    <style>
      .st0, .st1 {
        fill: none;
      }

      .st0, .st1, .st2 {
        stroke: #000;
        stroke-linecap: round;
        stroke-miterlimit: 10;
      }

      .st0, .st2 {
        stroke-width: 5px;
      }

      .st1 {
        stroke-width: 5px;
      }
    </style>
  </defs>
  <g>
    <path class="st0" d="M56.96,30.24c-2.3,0-4.16-1.86-4.16-4.16s1.86-4.16,4.16-4.16"/>
    <path class="st0" d="M87.04,21.92c2.3,0,4.16,1.86,4.16,4.16s-1.86,4.16-4.16,4.16"/>
    <line class="st0" x1="56.96" y1="21.92" x2="87.04" y2="21.92"/>
    <line class="st0" x1="56.96" y1="30.24" x2="87.04" y2="30.24"/>
  </g>
  <line class="st0" x1="52.8" y1="26.08" x2="38.39" y2="25.97"/>
  <line class="st0" x1="34.39" y1="117.08" x2="34.39" y2="29.97"/>
  <line class="st0" x1="91.2" y1="26.08" x2="105.72" y2="25.97"/>
  <line class="st0" x1="109.72" y1="117.08" x2="109.72" y2="29.97"/>
  <line class="st0" x1="38.39" y1="121.08" x2="105.72" y2="121.08"/>
  <line class="st1" x1="47.42" y1="61.08" x2="82.25" y2="61.08"/>
  <line class="st1" x1="47.42" y1="79.08" x2="82.25" y2="79.08"/>
  <line class="st1" x1="47.81" y1="97.08" x2="82.64" y2="97.08"/>
  <circle class="st2" cx="96.03" cy="61.08" r="3.5"/>
  <circle class="st2" cx="96.03" cy="79.08" r="3.5"/>
  <circle class="st2" cx="96.03" cy="97.08" r="3.5"/>
  <path class="st0" d="M105.72,25.97c2.21,0,4,1.79,4,4"/>
  <path class="st0" d="M34.39,29.97c0-2.21,1.79-4,4-4"/>
  <path class="st0" d="M38.39,121.08c-2.21,0-4-1.79-4-4"/>
  <path class="st0" d="M109.72,117.08c0,2.21-1.79,4-4,4"/>
</svg>